PathFileType	4	(X/Y/Z)	S01_0012_Gait_markers.trc
DataRate	CameraRate	NumFrames	NumMarkers	Units	OrigDataRate	OrigDataStartFrame	OrigNumFrames
250.000000	250.000000	4	54	mm	250.000000	280	321
Frame#	Time	HEAD_ANT			R_HEAD			L_HEAD			C7			R_BACK			L_BACK			STERNUM			R_ACROMION			R_HUM_PROX			R_HUM_ANT			R_HUM_POST			R_ELBOW_LAT			R_ELBOW_MED			R_FOREARM			R_WIRST_LAT			R_WRITS_MED			R_HAND			L_ACROMION			L_HUM_PROX			L_HUM_ANT			L_HUM_POST			L_ELBOW_LAT			L_ELBOW_MED			L_FOREARM			L_WRIST_LAT			L_WIRST_MED			L_HAND			R_ILIAC			SACRUM			L_ILIAC			R_GTROCH			R_THIGH__1			R_THIGH_2			R_THIGH_3			R_THIGH_4			R_SHANK_1			R_SHANK_2			R_SHANK_3			R_SHANK_4			R_HEEL			R_FOOT_LAT			R_FOOT_MED			L_GTROCH			L_THIGH_1			L_THIGH_2			L_THIGH_3			L_THIGH_4			L_SHANK_1			L_SHANK_2			L_SHANK_3			L_SHANK_4			L_HEEL			L_FOOT_LAT			L_FOOT_MED			
		X1	Y1	Z1	X2	Y2	Z2	X3	Y3	Z3	X4	Y4	Z4	X5	Y5	Z5	X6	Y6	Z6	X7	Y7	Z7	X8	Y8	Z8	X9	Y9	Z9	X10	Y10	Z10	X11	Y11	Z11	X12	Y12	Z12	X13	Y13	Z13	X14	Y14	Z14	X15	Y15	Z15	X16	Y16	Z16	X17	Y17	Z17	X18	Y18	Z18	X19	Y19	Z19	X20	Y20	Z20	X21	Y21	Z21	X22	Y22	Z22	X23	Y23	Z23	X24	Y24	Z24	X25	Y25	Z25	X26	Y26	Z26	X27	Y27	Z27	X28	Y28	Z28	X29	Y29	Z29	X30	Y30	Z30	X31	Y31	Z31	X32	Y32	Z32	X33	Y33	Z33	X34	Y34	Z34	X35	Y35	Z35	X36	Y36	Z36	X37	Y37	Z37	X38	Y38	Z38	X39	Y39	Z39	X40	Y40	Z40	X41	Y41	Z41	X42	Y42	Z42	X43	Y43	Z43	X44	Y44	Z44	X45	Y45	Z45	X46	Y46	Z46	X47	Y47	Z47	X48	Y48	Z48	X49	Y49	Z49	X50	Y50	Z50	X51	Y51	Z51	X52	Y52	Z52	X53	Y53	Z53	X54	Y54	Z54	

281	1.12	1769.930786132812	1714.275024414062	-352.0759887695309	1711.034545898438	1658.7490234375	-275.5532226562497	1711.454711914062	1666.647216796875	-423.1642761230465	1571.477294921875	1492.583251953125	-358.3576660156247	1498.582641601562	1293.955322265625	-296.0868530273435	1499.148681640625	1300.892333984375	-434.7609558105466	1751.584716796875	1329.369995117188	-351.984436035156	1637.5859375	1444.417114257812	-182.7697601318356	1582.332641601562	1286.381469726562	-96.81351470947237	1637.606689453125	1197.349243164062	-85.52065277099582	1516.7275390625	1207.244384765625	-90.9593200683591	1554.57568359375	1098.239013671875	-77.56881713867163	1540.02001953125	1094.526733398438	-158.7684020996091	1637.09521484375	907.3076782226562	-64.16824340820293	1671.89404296875	837.7031860351562	-98.2453079223631	1600.381103515625	820.6644287109375	-66.8903045654295	1661.060668945312	749.22900390625	-44.78195953369124	1660.889892578125	1446.79638671875	-521.9071655273434	1654.393676757812	1281.48974609375	-618.0360107421872	1721.573364257812	1204.740600585938	-611.2083740234373	1603.904907226562	1201.261962890625	-651.6127319335935	1671.815551757812	1099.966430664063	-653.5141601562498	1612.556030273438	1086.883544921875	-602.3099975585935	1804.753051757812	952.0327148437501	-598.214904785156	1835.605224609375	904.4205932617189	-536.2723999023435	1812.168823242188	867.2343750000001	-600.7106933593748	1896.413940429688	835.1428833007814	-566.716613769531	1650.761962890625	1041.939086914062	-186.9189758300779	1518.483642578125	1015.945495605469	-347.957336425781	1632.370361328125	1040.272827148438	-532.0494384765623	1621.804809570312	892.33740234375	-172.0717620849607	1740.036010742188	627.4071044921875	-192.5608978271483	1787.504638671875	662.0393676757812	-186.4814147949217	1825.98388671875	569.2022705078125	-225.3533172607421	1765.767578125	553.3553466796875	-216.4449615478514	1838.317016601562	337.5434875488282	-214.0589294433593	1897.35986328125	340.4084167480469	-227.6781921386718	1927.92333984375	261.7613830566407	-245.7770690917968	1866.40576171875	241.7910156250001	-237.3204956054687	1918.915283203125	36.08018875122077	-327.3450012207031	2080.59326171875	64.41698455810553	-242.9806213378906	2117.751708984375	104.9435653686524	-329.7160339355469	1585.78125	938.0400390625001	-529.796691894531	1580.5712890625	648.2081298828126	-518.4629516601561	1535.783447265625	683.9965209960939	-531.5996704101561	1491.130126953125	593.8780517578126	-498.0329284667968	1552.123413085938	575.3590698242189	-492.8735961914061	1405.428588867188	336.3578491210939	-477.1930847167968	1344.792236328125	339.8531799316407	-479.2323608398437	1308.289306640625	262.8068847656251	-458.8226928710937	1369.092163085938	243.2898712158204	-451.6485900878906	1198.418090820312	106.447235107422	-382.4030456542969	1354.44384765625	19.01352882385264	-445.6744079589844	1393.046508789062	29.41669273376472	-339.7211303710938	
282	1.124	1775.853515625	1713.626586914062	-351.4890747070309	1717.357055664062	1657.868896484375	-275.1276855468747	1717.468627929688	1665.89990234375	-422.7522583007809	1577.637084960938	1491.616333007812	-357.9054870605465	1505.372924804688	1292.887329101562	-295.8040466308591	1505.40380859375	1300.1357421875	-434.5949401855466	1757.80615234375	1328.484130859375	-351.4003601074216	1643.814453125	1443.452758789062	-182.4472961425778	1588.835815429688	1285.285400390625	-96.49138641357393	1644.21533203125	1196.280395507812	-85.38301086425754	1523.234375	1206.222290039062	-90.71083831787082	1561.131713867188	1097.068481445312	-77.57253265380835	1546.35302734375	1093.3154296875	-158.8798370361326	1643.291625976562	905.8685913085938	-64.07783508300761	1677.792724609375	836.346923828125	-98.2045135498045	1606.418579101562	819.472412109375	-66.90293884277325	1667.127197265625	747.6677856445312	-44.48324584960921	1666.819580078125	1445.988525390625	-521.6242675781247	1660.593383789062	1280.7158203125	-617.6978759765622	1727.563842773438	1203.949951171875	-610.9239501953123	1610.156982421875	1200.373046875	-650.8923339843748	1677.712036132812	1099.247314453125	-653.0251464843748	1618.833374023438	1086.186279296875	-601.8323974609373	1810.826538085938	951.1914672851564	-598.0513916015623	1841.465209960938	903.3256225585939	-536.2938232421873	1818.127075195312	866.3223876953126	-600.7052612304685	1902.407104492188	834.1304321289064	-566.943176269531	1657.158325195312	1040.976440429688	-186.7883148193357	1525.132446289062	1014.9619140625	-347.6696166992185	1638.360717773438	1039.196899414063	-531.814270019531	1628.379760742188	891.5506591796875	-172.0105285644529	1747.225708007812	626.8438720703125	-192.9498596191405	1794.671142578125	661.6241455078125	-186.7360229492186	1833.308837890625	568.9213256835938	-225.9192810058593	1773.35400390625	552.9530029296875	-217.0054321289061	1845.682739257812	337.1882629394532	-214.7572937011718	1904.466552734375	339.6969604492188	-228.7098693847655	1934.666381835938	260.8883666992188	-247.1199035644531	1873.129272460938	241.2423706054688	-238.0234374999999	1924.02978515625	34.71319961547859	-328.0113220214844	2085.865478515625	63.26390457153326	-244.3485260009766	2123.028564453125	103.5705261230469	-331.2888488769531	1592.149780273438	937.1444091796876	-529.4910888671873	1586.937744140625	647.4479370117189	-519.0537109374999	1541.831298828125	683.4188842773439	-531.6376342773436	1497.315063476562	593.2524414062501	-498.5666198730468	1558.061401367188	574.5590820312501	-493.0538024902343	1409.611694335938	336.4153442382814	-477.8139038085937	1348.99755859375	340.6127319335939	-479.9941101074218	1311.590698242188	263.8051757812501	-459.7162170410156	1372.064819335938	243.710662841797	-452.1714782714843	1199.775146484375	109.1573638916016	-383.2874755859375	1354.7529296875	18.74698066711436	-445.41259765625	1393.263916015625	29.58431053161629	-340.0763549804688	
283	1.128	1781.928955078125	1712.938110351562	-351.0202636718746	1723.327880859375	1657.188842773438	-274.5042114257809	1723.41796875	1665.166015625	-422.179046630859	1583.863403320312	1490.826904296875	-357.5539855957028	1511.582153320312	1291.912719726562	-295.5361328124997	1511.47314453125	1299.40185546875	-434.0133056640622	1763.703125	1327.823852539062	-351.144348144531	1650.088012695312	1442.448486328125	-181.9720458984372	1595.563720703125	1284.18212890625	-96.27977752685518	1650.723022460938	1195.191650390625	-85.2278747558591	1529.80517578125	1205.067504882812	-90.7306823730466	1568.389038085938	1095.935424804688	-77.39716339111304	1553.023315429688	1092.237670898438	-158.8229370117185	1649.424682617188	904.7493896484375	-64.16307830810527	1683.931762695312	835.0040283203125	-98.17465209960919	1612.406005859375	818.4324340820312	-66.78855133056622	1672.22314453125	746.3641357421875	-44.79775238037093	1672.935302734375	1445.187744140625	-521.1771850585934	1666.606689453125	1279.938354492188	-617.2852783203123	1733.707275390625	1203.367797851563	-610.5190429687498	1616.033203125	1199.643310546875	-650.3419189453123	1683.614990234375	1098.558227539063	-652.6002197265623	1624.905151367188	1085.46484375	-601.3131713867185	1816.827392578125	950.1873168945314	-597.9497070312498	1847.677856445312	902.3100585937501	-536.359436035156	1823.960205078125	865.2226562500001	-600.7424316406248	1908.198852539062	833.0157470703126	-567.245666503906	1663.729370117188	1040.19580078125	-186.5718841552732	1531.819580078125	1014.056213378906	-347.3988037109373	1643.869750976562	1038.4306640625	-531.693664550781	1635.299682617188	890.9337768554688	-172.0102691650389	1754.406005859375	626.5259399414062	-193.3227386474608	1801.833740234375	661.2466430664062	-187.5916900634764	1840.695556640625	568.7029418945312	-226.680206298828	1780.644897460938	552.4326782226562	-217.674835205078	1852.76953125	336.6739501953126	-215.3832702636718	1912.19580078125	339.3059387207032	-229.1390838623046	1941.139404296875	259.8993835449219	-248.1042022705078	1879.3935546875	240.5988006591797	-238.7527923583984	1928.818359375	33.49391937255866	-328.4947204589844	2090.87255859375	61.79497528076178	-245.7764739990234	2127.717041015625	101.9068832397462	-333.0497741699219	1598.393188476562	936.3090209960939	-529.0629272460935	1593.040893554688	646.7802734375001	-519.3732299804686	1548.14111328125	682.8207397460939	-531.7349853515624	1503.363037109375	592.5597534179689	-498.8500061035155	1564.051879882812	573.9683227539064	-493.2329711914061	1413.907470703125	336.5163879394532	-478.1195373535156	1353.245849609375	341.174041748047	-480.5035400390624	1314.863159179688	264.8824157714845	-460.4365539550781	1375.319580078125	244.3870086669923	-452.7146911621093	1201.133178710938	111.7013320922852	-384.5282287597656	1354.8984375	18.79212760925303	-445.5496826171875	1393.280395507812	29.71592903137214	-340.4723205566406	
284	1.132	1787.943969726562	1712.37255859375	-350.4474792480465	1729.363891601562	1656.403442382812	-274.1809692382809	1729.575073242188	1664.473266601562	-421.6464233398434	1590.112426757812	1490.112915039062	-356.9414367675778	1517.5478515625	1291.101196289062	-295.0985107421872	1517.808471679688	1298.625122070312	-433.7466125488278	1770.119873046875	1327.278076171875	-351.1022644042966	1656.4765625	1441.587646484375	-181.5903625488278	1602.078857421875	1283.16162109375	-96.11866760253878	1657.3388671875	1194.1884765625	-85.08259582519504	1536.464965820312	1203.926513671875	-90.5308532714841	1574.880493164062	1094.977294921875	-77.5906600952146	1559.777587890625	1091.26953125	-158.7697143554685	1655.599365234375	903.5241088867188	-64.22319793701152	1690.103271484375	833.5286254882812	-98.18465423583966	1618.40478515625	817.3773193359375	-66.70129394531232	1678.457153320312	745.0285034179688	-44.4956207275389	1679.102294921875	1444.436401367188	-520.8328247070309	1672.758422851562	1279.283935546875	-616.8376464843748	1739.86376953125	1202.6318359375	-610.0641479492185	1622.156982421875	1198.986694335938	-650.001525878906	1689.673217773438	1097.804809570313	-652.238098144531	1630.890991210938	1084.7578125	-600.4989624023435	1822.650268554688	949.2839965820314	-597.9821777343748	1853.900146484375	901.3015136718751	-536.4843749999998	1829.74365234375	864.3619995117189	-600.7482910156248	1914.047485351562	831.9790649414064	-567.5802001953123	1669.866943359375	1039.383544921875	-186.3898620605466	1538.450805664062	1013.124877929688	-347.1754150390623	1650.130126953125	1037.725830078125	-531.463928222656	1642.232299804688	890.3597412109375	-171.9726867675779	1762.117431640625	625.5265502929688	-196.4176788330077	1809.183471679688	660.6828002929688	-187.9516143798827	1848.21923828125	568.5029296875	-227.317657470703	1788.302734375	552.0758666992188	-218.301544189453	1859.658569335938	336.2382507324219	-216.0304412841796	1919.083984375	338.3780822753907	-230.023468017578	1947.225219726562	258.5764770507813	-249.1690979003906	1885.4267578125	239.9644317626954	-239.3952636718749	1933.040771484375	32.04420471191413	-329.0171203613281	2095.304931640625	60.24057006835943	-247.0372772216797	2132.034912109375	99.92829132080085	-334.5588989257812	1604.677490234375	935.7017822265626	-529.1134033203123	1599.388671875	646.2667236328126	-519.5814819335936	1554.615478515625	682.1832885742189	-531.9400634765624	1509.483032226562	592.0579833984376	-499.0646362304686	1570.359130859375	573.2866210937501	-493.5790100097655	1418.320678710938	336.6145935058595	-478.8181457519531	1357.755737304688	342.0156250000001	-481.3682861328124	1318.518310546875	266.1988220214845	-461.3000793457031	1378.418212890625	244.7288055419923	-453.2188720703124	1202.633056640625	114.5073623657227	-385.7106018066406	1355.12451171875	18.85972785949717	-445.7429809570312	1393.333374023438	29.9000606536866	-340.7450256347656	
